<svg width="78" height="23" viewBox="0 0 78 23" fill="none" xmlns="http://www.w3.org/2000/svg">
<path d="M11.6971 0C5.23709 0 0 5.14881 0 11.5001C0 17.8516 5.23709 23 11.6971 23C18.1577 23 23.3943 17.8516 23.3943 11.5001C23.3943 5.14923 18.1577 0.000549307 11.6969 0.000549307L11.6971 0ZM17.0613 16.5864C16.8517 16.9242 16.402 17.0313 16.0584 16.824C13.312 15.1747 9.85471 14.8011 5.78309 15.7157C5.39074 15.8036 4.99964 15.5619 4.91024 15.176C4.82043 14.7902 5.06529 14.4056 5.45862 14.3178C9.91435 13.3169 13.7364 13.7478 16.8196 15.6004C17.1632 15.8078 17.2722 16.2486 17.0613 16.5864ZM18.493 13.4551C18.229 13.8769 17.6675 14.0101 17.2386 13.7506C14.0945 11.8505 9.30172 11.3003 5.58279 12.4101C5.10048 12.5534 4.59108 12.2861 4.4447 11.8128C4.29943 11.3386 4.57138 10.8387 5.05285 10.6945C9.30088 9.42725 14.582 10.0411 18.1926 12.2225C18.6215 12.4821 18.7569 13.034 18.493 13.4551ZM18.6159 10.1944C14.846 7.99287 8.6261 7.79044 5.02673 8.86448C4.44875 9.03683 3.83751 8.71603 3.66236 8.14777C3.4872 7.57924 3.81321 6.9787 4.39162 6.80594C8.52343 5.57274 15.3921 5.81101 19.7325 8.34429C20.2535 8.64764 20.4239 9.30778 20.1152 9.81822C19.8079 10.3294 19.1346 10.4979 18.6164 10.1944H18.6159ZM31.8238 10.6162C29.8041 10.1427 29.4451 9.81039 29.4451 9.11208C29.4451 8.45236 30.0765 8.00838 31.0165 8.00838C31.9272 8.00838 32.8295 8.34552 33.7765 9.03957C33.8045 9.06059 33.8408 9.06896 33.8757 9.06347C33.912 9.05825 33.9427 9.03916 33.9637 9.01046L34.9498 7.64378C34.9903 7.58747 34.9792 7.50988 34.9247 7.4669C33.7975 6.57798 32.5292 6.14581 31.0458 6.14581C28.8654 6.14581 27.3416 7.43243 27.3416 9.27331C27.3416 11.2474 28.6559 11.9464 30.9271 12.4859C32.8588 12.9236 33.1857 13.2903 33.1857 13.9456C33.1857 14.6721 32.5264 15.1239 31.4649 15.1239C30.286 15.1239 29.3236 14.7325 28.2481 13.8179C28.2215 13.7945 28.1852 13.7849 28.1517 13.7863C28.1154 13.789 28.0833 13.8055 28.0609 13.8316L26.9547 15.1252C26.9086 15.1802 26.9141 15.2598 26.9672 15.3065C28.2187 16.4051 29.758 16.9846 31.4202 16.9846C33.7695 16.9846 35.2878 15.7226 35.2878 13.7684C35.292 12.1196 34.2878 11.2063 31.828 10.618L31.8238 10.6162ZM40.604 8.65794C39.5857 8.65794 38.7505 9.05235 38.0605 9.86052V8.95086C38.0605 8.87904 38.0018 8.82054 37.9292 8.82054H36.1203C36.0477 8.82054 35.989 8.87904 35.989 8.95086V19.0583C35.989 19.1297 36.0477 19.1888 36.1203 19.1888H37.9292C38.0018 19.1888 38.0605 19.1297 38.0605 19.0583V15.8682C38.7505 16.6276 39.5857 16.9998 40.604 16.9998C42.4966 16.9998 44.413 15.5674 44.413 12.8293C44.4158 10.0905 42.4994 8.6578 40.6054 8.6578L40.604 8.65794ZM42.3095 12.8293C42.3095 14.223 41.4365 15.1966 40.185 15.1966C38.9488 15.1966 38.0158 14.1791 38.0158 12.8293C38.0158 11.4793 38.9488 10.462 40.185 10.462C41.4155 10.4619 42.3095 11.4574 42.3095 12.8293ZM49.3227 8.65794C46.8853 8.65794 44.9759 10.5031 44.9759 12.8591C44.9759 15.1898 46.8727 17.0149 49.2934 17.0149C51.7391 17.0149 53.6541 15.176 53.6541 12.8293C53.6541 10.4904 51.7517 8.65822 49.3227 8.65822V8.65794ZM49.3227 15.2104C48.0265 15.2104 47.0487 14.1859 47.0487 12.8286C47.0487 11.4651 47.993 10.4756 49.2934 10.4756C50.598 10.4756 51.5813 11.4997 51.5813 12.8584C51.5813 14.2216 50.6315 15.2104 49.3227 15.2104ZM58.8585 8.82054H56.8681V6.82023C56.8681 6.74854 56.8094 6.69004 56.7368 6.69004H54.928C54.8553 6.69004 54.7953 6.74854 54.7953 6.82023V8.82054H53.9265C53.8539 8.82054 53.7952 8.87904 53.7952 8.95086V10.4789C53.7952 10.5506 53.8539 10.6092 53.9265 10.6092H54.7953V14.5636C54.7953 16.1607 55.604 16.9709 57.2005 16.9709C57.8486 16.9709 58.3864 16.8391 58.8934 16.5562C58.9353 16.5342 58.9605 16.4903 58.9605 16.4436V14.9879C58.9605 14.944 58.9367 14.9014 58.8976 14.878C58.8585 14.8533 58.8096 14.852 58.7691 14.8726C58.4213 15.0442 58.0847 15.1239 57.7076 15.1239C57.1279 15.1239 56.8681 14.8643 56.8681 14.2848V10.6099H58.8585C58.9312 10.6099 58.9898 10.5514 58.9898 10.4796V8.95168C58.9926 8.87986 58.9339 8.82136 58.8599 8.82136L58.8585 8.82054ZM65.7921 8.82837V8.58269C65.7921 7.85993 66.0743 7.53762 66.7056 7.53762C67.0828 7.53762 67.3859 7.61123 67.7253 7.72247C67.7672 7.73538 67.8105 7.72892 67.844 7.70434C67.8789 7.67976 67.8985 7.64035 67.8985 7.5986V6.10036C67.8985 6.04309 67.8622 5.99242 67.8049 5.97553C67.4473 5.87075 66.9892 5.76322 66.302 5.76322C64.6328 5.76322 63.7486 6.68798 63.7486 8.43657V8.81285H62.8799C62.8072 8.81285 62.7472 8.87135 62.7472 8.94303V10.4789C62.7472 10.5506 62.8072 10.6092 62.8799 10.6092H63.7486V16.7072C63.7486 16.78 63.8087 16.8377 63.8813 16.8377H65.6888C65.7628 16.8377 65.8215 16.78 65.8215 16.7072V10.6096H67.5102L70.097 16.7072C69.8037 17.3472 69.5146 17.4749 69.1207 17.4749C68.8022 17.4749 68.4656 17.3815 68.1234 17.1961C68.0912 17.1797 68.0521 17.1769 68.0186 17.1865C67.9837 17.1989 67.9544 17.2236 67.9404 17.2566L67.3272 18.579C67.2979 18.6422 67.323 18.715 67.3845 18.7479C68.0242 19.0885 68.6011 19.2341 69.3148 19.2341C70.6501 19.2341 71.389 18.6216 72.0385 16.9764L75.1757 9.00634C75.1925 8.96624 75.1869 8.92092 75.1617 8.88535C75.138 8.85006 75.0975 8.82878 75.0542 8.82878H73.1713C73.1141 8.82878 73.0638 8.86407 73.0456 8.91612L71.1167 14.3315L69.0047 8.91255C68.9852 8.86215 68.9363 8.82878 68.8818 8.82878H65.7921V8.82837ZM61.7722 8.82054H59.9634C59.8907 8.82054 59.8307 8.87904 59.8307 8.95086V16.7072C59.8307 16.78 59.8907 16.8377 59.9634 16.8377H61.7722C61.8448 16.8377 61.9049 16.78 61.9049 16.7072V8.95141C61.9049 8.87959 61.8462 8.82109 61.7722 8.82109V8.82054ZM60.8783 5.28861C60.1617 5.28861 59.5807 5.8588 59.5807 6.56315C59.5807 7.26791 60.1617 7.83878 60.8783 7.83878C61.5948 7.83878 62.1745 7.26791 62.1745 6.56315C62.1745 5.85893 61.5934 5.28861 60.8783 5.28861ZM76.7206 11.3145C76.0054 11.3145 75.4481 10.7494 75.4481 10.0632C75.4481 9.37699 76.0124 8.80543 76.7275 8.80543C77.4427 8.80543 78 9.3704 78 10.0561C78 10.7423 77.4357 11.3145 76.7206 11.3145ZM76.7275 8.92985C76.0752 8.92985 75.5822 9.43933 75.5822 10.0632C75.5822 10.6868 76.0724 11.1894 76.7206 11.1894C77.3728 11.1894 77.8659 10.6804 77.8659 10.0561C77.8659 9.43247 77.3756 8.92985 76.7275 8.92985ZM77.0097 10.1847L77.37 10.6802H77.0656L76.7415 10.2257H76.4635V10.6802H76.2093V9.36683H76.8044C77.1158 9.36683 77.3198 9.52297 77.3198 9.78581C77.3212 10.0011 77.1941 10.1327 77.0111 10.1847H77.0097ZM76.7946 9.59218H76.4635V10.0076H76.7946C76.9594 10.0076 77.0586 9.92808 77.0586 9.79968C77.0586 9.66455 76.9594 9.59218 76.7946 9.59218Z" fill="#121212"/>
</svg>
